<mxfile host="app.diagrams.net" modified="2022-07-11T09:26:02.326Z" agent="5.0 (Windows NT 10.0; Win64; x64) AppleWebKit/537.36 (KHTML, like Gecko) Chrome/103.0.0.0 Safari/537.36" etag="h3UISoGcfsFLAhcax8j3" version="20.0.4" type="github">
  <diagram id="C5RBs43oDa-KdzZeNtuy" name="Page-1">
    <mxGraphModel dx="1597" dy="842" grid="1" gridSize="10" guides="1" tooltips="1" connect="1" arrows="1" fold="1" page="1" pageScale="1" pageWidth="827" pageHeight="1169" math="0" shadow="0">
      <root>
        <mxCell id="WIyWlLk6GJQsqaUBKTNV-0" />
        <mxCell id="WIyWlLk6GJQsqaUBKTNV-1" parent="WIyWlLk6GJQsqaUBKTNV-0" />
        <mxCell id="SojVmQSfYx5g1dSYXvL5-6" value="" style="edgeStyle=orthogonalEdgeStyle;rounded=0;orthogonalLoop=1;jettySize=auto;html=1;" edge="1" parent="WIyWlLk6GJQsqaUBKTNV-1" source="SojVmQSfYx5g1dSYXvL5-0" target="SojVmQSfYx5g1dSYXvL5-5">
          <mxGeometry relative="1" as="geometry" />
        </mxCell>
        <mxCell id="SojVmQSfYx5g1dSYXvL5-0" value="app start" style="rounded=1;whiteSpace=wrap;html=1;" vertex="1" parent="WIyWlLk6GJQsqaUBKTNV-1">
          <mxGeometry x="70" y="40" width="120" height="40" as="geometry" />
        </mxCell>
        <mxCell id="SojVmQSfYx5g1dSYXvL5-9" value="" style="edgeStyle=orthogonalEdgeStyle;rounded=0;orthogonalLoop=1;jettySize=auto;html=1;" edge="1" parent="WIyWlLk6GJQsqaUBKTNV-1" target="SojVmQSfYx5g1dSYXvL5-8">
          <mxGeometry relative="1" as="geometry">
            <mxPoint x="130.0000000000001" y="220" as="sourcePoint" />
          </mxGeometry>
        </mxCell>
        <mxCell id="SojVmQSfYx5g1dSYXvL5-7" value="" style="edgeStyle=orthogonalEdgeStyle;rounded=0;orthogonalLoop=1;jettySize=auto;html=1;" edge="1" parent="WIyWlLk6GJQsqaUBKTNV-1" source="SojVmQSfYx5g1dSYXvL5-5">
          <mxGeometry relative="1" as="geometry">
            <mxPoint x="130.0000000000001" y="180" as="targetPoint" />
          </mxGeometry>
        </mxCell>
        <mxCell id="SojVmQSfYx5g1dSYXvL5-5" value="service_price = 100" style="rounded=0;whiteSpace=wrap;html=1;" vertex="1" parent="WIyWlLk6GJQsqaUBKTNV-1">
          <mxGeometry x="70" y="110" width="120" height="40" as="geometry" />
        </mxCell>
        <mxCell id="SojVmQSfYx5g1dSYXvL5-18" value="" style="edgeStyle=orthogonalEdgeStyle;rounded=0;orthogonalLoop=1;jettySize=auto;html=1;" edge="1" parent="WIyWlLk6GJQsqaUBKTNV-1" source="SojVmQSfYx5g1dSYXvL5-8" target="SojVmQSfYx5g1dSYXvL5-14">
          <mxGeometry relative="1" as="geometry" />
        </mxCell>
        <mxCell id="SojVmQSfYx5g1dSYXvL5-20" value="" style="edgeStyle=orthogonalEdgeStyle;rounded=0;orthogonalLoop=1;jettySize=auto;html=1;" edge="1" parent="WIyWlLk6GJQsqaUBKTNV-1" source="SojVmQSfYx5g1dSYXvL5-8" target="SojVmQSfYx5g1dSYXvL5-19">
          <mxGeometry relative="1" as="geometry" />
        </mxCell>
        <mxCell id="SojVmQSfYx5g1dSYXvL5-8" value="cash_amount &amp;gt;= service_amount" style="rhombus;whiteSpace=wrap;html=1;" vertex="1" parent="WIyWlLk6GJQsqaUBKTNV-1">
          <mxGeometry x="55" y="250" width="150" height="80" as="geometry" />
        </mxCell>
        <mxCell id="SojVmQSfYx5g1dSYXvL5-10" value="input: cash_amount" style="shape=parallelogram;perimeter=parallelogramPerimeter;whiteSpace=wrap;html=1;fixedSize=1;" vertex="1" parent="WIyWlLk6GJQsqaUBKTNV-1">
          <mxGeometry x="50" y="180" width="160" height="40" as="geometry" />
        </mxCell>
        <mxCell id="SojVmQSfYx5g1dSYXvL5-55" style="edgeStyle=orthogonalEdgeStyle;rounded=0;orthogonalLoop=1;jettySize=auto;html=1;entryX=0.5;entryY=0;entryDx=0;entryDy=0;" edge="1" parent="WIyWlLk6GJQsqaUBKTNV-1" source="SojVmQSfYx5g1dSYXvL5-14" target="SojVmQSfYx5g1dSYXvL5-54">
          <mxGeometry relative="1" as="geometry" />
        </mxCell>
        <mxCell id="SojVmQSfYx5g1dSYXvL5-14" value="output: &quot;Payment success&quot;" style="shape=parallelogram;perimeter=parallelogramPerimeter;whiteSpace=wrap;html=1;fixedSize=1;" vertex="1" parent="WIyWlLk6GJQsqaUBKTNV-1">
          <mxGeometry x="40" y="370" width="180" height="40" as="geometry" />
        </mxCell>
        <mxCell id="SojVmQSfYx5g1dSYXvL5-16" value="True" style="text;html=1;align=center;verticalAlign=middle;resizable=0;points=[];autosize=1;strokeColor=none;fillColor=none;" vertex="1" parent="WIyWlLk6GJQsqaUBKTNV-1">
          <mxGeometry x="130" y="330" width="50" height="30" as="geometry" />
        </mxCell>
        <mxCell id="SojVmQSfYx5g1dSYXvL5-37" style="edgeStyle=orthogonalEdgeStyle;rounded=0;orthogonalLoop=1;jettySize=auto;html=1;entryX=0.5;entryY=0;entryDx=0;entryDy=0;" edge="1" parent="WIyWlLk6GJQsqaUBKTNV-1" source="SojVmQSfYx5g1dSYXvL5-19" target="SojVmQSfYx5g1dSYXvL5-36">
          <mxGeometry relative="1" as="geometry" />
        </mxCell>
        <mxCell id="SojVmQSfYx5g1dSYXvL5-19" value="output: &quot;Payment Failure&quot;" style="shape=parallelogram;perimeter=parallelogramPerimeter;whiteSpace=wrap;html=1;fixedSize=1;" vertex="1" parent="WIyWlLk6GJQsqaUBKTNV-1">
          <mxGeometry x="240" y="270" width="180" height="40" as="geometry" />
        </mxCell>
        <mxCell id="SojVmQSfYx5g1dSYXvL5-21" value="False" style="text;html=1;align=center;verticalAlign=middle;resizable=0;points=[];autosize=1;strokeColor=none;fillColor=none;" vertex="1" parent="WIyWlLk6GJQsqaUBKTNV-1">
          <mxGeometry x="200" y="260" width="50" height="30" as="geometry" />
        </mxCell>
        <mxCell id="SojVmQSfYx5g1dSYXvL5-26" value="" style="edgeStyle=orthogonalEdgeStyle;rounded=0;orthogonalLoop=1;jettySize=auto;html=1;" edge="1" parent="WIyWlLk6GJQsqaUBKTNV-1" source="SojVmQSfYx5g1dSYXvL5-28" target="SojVmQSfYx5g1dSYXvL5-29">
          <mxGeometry relative="1" as="geometry" />
        </mxCell>
        <mxCell id="SojVmQSfYx5g1dSYXvL5-27" value="" style="edgeStyle=orthogonalEdgeStyle;rounded=0;orthogonalLoop=1;jettySize=auto;html=1;" edge="1" parent="WIyWlLk6GJQsqaUBKTNV-1" source="SojVmQSfYx5g1dSYXvL5-28" target="SojVmQSfYx5g1dSYXvL5-31">
          <mxGeometry relative="1" as="geometry" />
        </mxCell>
        <mxCell id="SojVmQSfYx5g1dSYXvL5-28" value="card_amount &amp;gt;= service_amount" style="rhombus;whiteSpace=wrap;html=1;" vertex="1" parent="WIyWlLk6GJQsqaUBKTNV-1">
          <mxGeometry x="255" y="410" width="150" height="80" as="geometry" />
        </mxCell>
        <mxCell id="SojVmQSfYx5g1dSYXvL5-56" style="edgeStyle=orthogonalEdgeStyle;rounded=0;orthogonalLoop=1;jettySize=auto;html=1;" edge="1" parent="WIyWlLk6GJQsqaUBKTNV-1" source="SojVmQSfYx5g1dSYXvL5-29">
          <mxGeometry relative="1" as="geometry">
            <mxPoint x="130" y="830" as="targetPoint" />
            <Array as="points">
              <mxPoint x="330" y="680" />
              <mxPoint x="130" y="680" />
            </Array>
          </mxGeometry>
        </mxCell>
        <mxCell id="SojVmQSfYx5g1dSYXvL5-29" value="output: &quot;Payment success&quot;" style="shape=parallelogram;perimeter=parallelogramPerimeter;whiteSpace=wrap;html=1;fixedSize=1;" vertex="1" parent="WIyWlLk6GJQsqaUBKTNV-1">
          <mxGeometry x="240" y="530" width="180" height="40" as="geometry" />
        </mxCell>
        <mxCell id="SojVmQSfYx5g1dSYXvL5-30" value="True" style="text;html=1;align=center;verticalAlign=middle;resizable=0;points=[];autosize=1;strokeColor=none;fillColor=none;" vertex="1" parent="WIyWlLk6GJQsqaUBKTNV-1">
          <mxGeometry x="330" y="490" width="50" height="30" as="geometry" />
        </mxCell>
        <mxCell id="SojVmQSfYx5g1dSYXvL5-50" style="edgeStyle=orthogonalEdgeStyle;rounded=0;orthogonalLoop=1;jettySize=auto;html=1;entryX=0.5;entryY=0;entryDx=0;entryDy=0;" edge="1" parent="WIyWlLk6GJQsqaUBKTNV-1" source="SojVmQSfYx5g1dSYXvL5-31" target="SojVmQSfYx5g1dSYXvL5-49">
          <mxGeometry relative="1" as="geometry" />
        </mxCell>
        <mxCell id="SojVmQSfYx5g1dSYXvL5-31" value="output: &quot;Payment Failure&quot;" style="shape=parallelogram;perimeter=parallelogramPerimeter;whiteSpace=wrap;html=1;fixedSize=1;" vertex="1" parent="WIyWlLk6GJQsqaUBKTNV-1">
          <mxGeometry x="440" y="430" width="180" height="40" as="geometry" />
        </mxCell>
        <mxCell id="SojVmQSfYx5g1dSYXvL5-32" value="False" style="text;html=1;align=center;verticalAlign=middle;resizable=0;points=[];autosize=1;strokeColor=none;fillColor=none;" vertex="1" parent="WIyWlLk6GJQsqaUBKTNV-1">
          <mxGeometry x="400" y="420" width="50" height="30" as="geometry" />
        </mxCell>
        <mxCell id="SojVmQSfYx5g1dSYXvL5-40" style="edgeStyle=orthogonalEdgeStyle;rounded=0;orthogonalLoop=1;jettySize=auto;html=1;entryX=0.5;entryY=0;entryDx=0;entryDy=0;" edge="1" parent="WIyWlLk6GJQsqaUBKTNV-1" source="SojVmQSfYx5g1dSYXvL5-36" target="SojVmQSfYx5g1dSYXvL5-28">
          <mxGeometry relative="1" as="geometry" />
        </mxCell>
        <mxCell id="SojVmQSfYx5g1dSYXvL5-36" value="input: card_amount" style="shape=parallelogram;perimeter=parallelogramPerimeter;whiteSpace=wrap;html=1;fixedSize=1;" vertex="1" parent="WIyWlLk6GJQsqaUBKTNV-1">
          <mxGeometry x="250" y="340" width="160" height="40" as="geometry" />
        </mxCell>
        <mxCell id="SojVmQSfYx5g1dSYXvL5-41" value="" style="edgeStyle=orthogonalEdgeStyle;rounded=0;orthogonalLoop=1;jettySize=auto;html=1;" edge="1" parent="WIyWlLk6GJQsqaUBKTNV-1" source="SojVmQSfYx5g1dSYXvL5-43" target="SojVmQSfYx5g1dSYXvL5-44">
          <mxGeometry relative="1" as="geometry" />
        </mxCell>
        <mxCell id="SojVmQSfYx5g1dSYXvL5-42" value="" style="edgeStyle=orthogonalEdgeStyle;rounded=0;orthogonalLoop=1;jettySize=auto;html=1;" edge="1" parent="WIyWlLk6GJQsqaUBKTNV-1" source="SojVmQSfYx5g1dSYXvL5-43" target="SojVmQSfYx5g1dSYXvL5-46">
          <mxGeometry relative="1" as="geometry" />
        </mxCell>
        <mxCell id="SojVmQSfYx5g1dSYXvL5-43" value="convert_crypto_amount &amp;gt;= service_amount" style="rhombus;whiteSpace=wrap;html=1;" vertex="1" parent="WIyWlLk6GJQsqaUBKTNV-1">
          <mxGeometry x="427.5" y="640" width="205" height="80" as="geometry" />
        </mxCell>
        <mxCell id="SojVmQSfYx5g1dSYXvL5-57" style="edgeStyle=orthogonalEdgeStyle;rounded=0;orthogonalLoop=1;jettySize=auto;html=1;entryX=0.5;entryY=0;entryDx=0;entryDy=0;" edge="1" parent="WIyWlLk6GJQsqaUBKTNV-1" source="SojVmQSfYx5g1dSYXvL5-44" target="SojVmQSfYx5g1dSYXvL5-54">
          <mxGeometry relative="1" as="geometry" />
        </mxCell>
        <mxCell id="SojVmQSfYx5g1dSYXvL5-44" value="output: &quot;Payment success&quot;" style="shape=parallelogram;perimeter=parallelogramPerimeter;whiteSpace=wrap;html=1;fixedSize=1;" vertex="1" parent="WIyWlLk6GJQsqaUBKTNV-1">
          <mxGeometry x="440" y="760" width="180" height="40" as="geometry" />
        </mxCell>
        <mxCell id="SojVmQSfYx5g1dSYXvL5-45" value="True" style="text;html=1;align=center;verticalAlign=middle;resizable=0;points=[];autosize=1;strokeColor=none;fillColor=none;" vertex="1" parent="WIyWlLk6GJQsqaUBKTNV-1">
          <mxGeometry x="530" y="720" width="50" height="30" as="geometry" />
        </mxCell>
        <mxCell id="SojVmQSfYx5g1dSYXvL5-46" value="output: &quot;Payment Failure&quot;" style="shape=parallelogram;perimeter=parallelogramPerimeter;whiteSpace=wrap;html=1;fixedSize=1;" vertex="1" parent="WIyWlLk6GJQsqaUBKTNV-1">
          <mxGeometry x="670" y="660" width="180" height="40" as="geometry" />
        </mxCell>
        <mxCell id="SojVmQSfYx5g1dSYXvL5-47" value="False" style="text;html=1;align=center;verticalAlign=middle;resizable=0;points=[];autosize=1;strokeColor=none;fillColor=none;" vertex="1" parent="WIyWlLk6GJQsqaUBKTNV-1">
          <mxGeometry x="630" y="650" width="50" height="30" as="geometry" />
        </mxCell>
        <mxCell id="SojVmQSfYx5g1dSYXvL5-52" value="" style="edgeStyle=orthogonalEdgeStyle;rounded=0;orthogonalLoop=1;jettySize=auto;html=1;" edge="1" parent="WIyWlLk6GJQsqaUBKTNV-1" source="SojVmQSfYx5g1dSYXvL5-49" target="SojVmQSfYx5g1dSYXvL5-51">
          <mxGeometry relative="1" as="geometry" />
        </mxCell>
        <mxCell id="SojVmQSfYx5g1dSYXvL5-49" value="input: crypto_amount" style="shape=parallelogram;perimeter=parallelogramPerimeter;whiteSpace=wrap;html=1;fixedSize=1;" vertex="1" parent="WIyWlLk6GJQsqaUBKTNV-1">
          <mxGeometry x="450" y="500" width="160" height="40" as="geometry" />
        </mxCell>
        <mxCell id="SojVmQSfYx5g1dSYXvL5-53" style="edgeStyle=orthogonalEdgeStyle;rounded=0;orthogonalLoop=1;jettySize=auto;html=1;entryX=0.5;entryY=0;entryDx=0;entryDy=0;" edge="1" parent="WIyWlLk6GJQsqaUBKTNV-1" source="SojVmQSfYx5g1dSYXvL5-51" target="SojVmQSfYx5g1dSYXvL5-43">
          <mxGeometry relative="1" as="geometry" />
        </mxCell>
        <mxCell id="SojVmQSfYx5g1dSYXvL5-51" value="convert_crypto_amount = crypto_amount * 1000" style="rounded=0;whiteSpace=wrap;html=1;" vertex="1" parent="WIyWlLk6GJQsqaUBKTNV-1">
          <mxGeometry x="455" y="570" width="150" height="40" as="geometry" />
        </mxCell>
        <mxCell id="SojVmQSfYx5g1dSYXvL5-54" value="app start" style="rounded=1;whiteSpace=wrap;html=1;" vertex="1" parent="WIyWlLk6GJQsqaUBKTNV-1">
          <mxGeometry x="70" y="830" width="120" height="40" as="geometry" />
        </mxCell>
      </root>
    </mxGraphModel>
  </diagram>
</mxfile>
